<?xml version="1.0" encoding="UTF-8"?>
<svg id="Layer_2" xmlns="http://www.w3.org/2000/svg" viewBox="0 0 1579.29 576">
  <defs>
    <style>
      .cls-1 {
        fill: #122235;
      }

      .cls-2 {
        fill: #101a2a;
      }

      .cls-3 {
        fill: #111b25;
      }

      .cls-4 {
        fill: #111921;
      }

      .cls-5 {
        fill: #2a365b;
      }

      .cls-6 {
        fill: #152745;
      }

      .cls-7 {
        fill: #294167;
      }

      .cls-8 {
        fill: #162433;
      }

      .cls-9 {
        fill: #111a29;
      }

      .cls-10 {
        fill: #12191e;
      }

      .cls-11 {
        fill: #1a2e51;
      }

      .cls-12 {
        fill: #111923;
      }

      .cls-13 {
        fill: #101a22;
      }

      .cls-14 {
        fill: #17212e;
      }

      .cls-15 {
        fill: #101a21;
      }

      .cls-16 {
        fill: #14273c;
      }

      .cls-17 {
        fill: #1a3553;
      }

      .cls-18 {
        fill: #444161;
      }

      .cls-19 {
        fill: #253c68;
      }

      .cls-20 {
        fill: #111a21;
      }

      .cls-21 {
        fill: #112136;
      }

      .cls-22 {
        fill: #14294a;
      }

      .cls-23 {
        fill: #efe93d;
      }

      .cls-24 {
        fill: #231f20;
      }

      .cls-25 {
        fill: #1a3153;
      }

      .cls-26 {
        fill: #121e27;
      }

      .cls-27 {
        fill: #102b49;
      }

      .cls-28 {
        fill: #101820;
      }

      .cls-29 {
        fill: #111414;
      }

      .cls-30 {
        fill: #233d5f;
      }

      .cls-31 {
        fill: #111a20;
      }

      .cls-32 {
        fill: #162132;
      }

      .cls-33 {
        fill: #101c23;
      }

      .cls-34 {
        fill: #162332;
      }

      .cls-35 {
        fill: #1f324c;
      }

      .cls-36 {
        fill: #122237;
      }

      .cls-37 {
        fill: #1d2e44;
      }

      .cls-38 {
        fill: #101a2b;
      }

      .cls-39 {
        fill: #111c29;
      }

      .cls-40 {
        fill: #131f2d;
      }

      .cls-41 {
        fill: #11243c;
      }

      .cls-42 {
        fill: #132336;
      }

      .cls-43 {
        fill: #12263f;
      }

      .cls-44 {
        fill: #282c45;
      }

      .cls-45 {
        fill: #132033;
      }

      .cls-46 {
        fill: #0f1928;
      }

      .cls-47 {
        fill: #111920;
      }

      .cls-48 {
        fill: #1a345b;
      }

      .cls-49 {
        fill: #304163;
      }

      .cls-50 {
        fill: #736884;
      }

      .cls-51 {
        fill: #716479;
      }

      .cls-52 {
        fill: #121f2d;
      }

      .cls-53 {
        fill: #131c2c;
      }

      .cls-54 {
        fill: #1e2733;
      }

      .cls-55 {
        fill: #27345a;
      }

      .cls-56 {
        fill: #13202e;
      }

      .cls-57 {
        fill: #12202f;
      }

      .cls-58 {
        fill: #3b394e;
      }

      .cls-59 {
        fill: #141d25;
      }

      .cls-60 {
        fill: #13273c;
      }

      .cls-61 {
        fill: #0e233d;
      }

      .cls-62 {
        fill: #232f52;
      }

      .cls-63 {
        fill: #40385c;
      }

      .cls-64 {
        fill: #101c2b;
      }

      .cls-65 {
        fill: #162f54;
      }

      .cls-66 {
        fill: #121d2a;
      }

      .cls-67 {
        fill: #121921;
      }

      .cls-68 {
        fill: #111a27;
      }

      .cls-69 {
        fill: #22354d;
      }

      .cls-70 {
        fill: #23324a;
      }

      .cls-71 {
        fill: #121d28;
      }

      .cls-72 {
        fill: #233659;
      }

      .cls-73 {
        fill: #1b344f;
      }

      .cls-74 {
        fill: #13284a;
      }

      .cls-75 {
        fill: #122338;
      }

      .cls-76 {
        fill: #101e31;
      }

      .cls-77 {
        fill: #14293e;
      }

      .cls-78 {
        fill: #122033;
      }

      .cls-79 {
        fill: #17233d;
      }

      .cls-80 {
        fill: #131f2e;
      }

      .cls-81 {
        fill: #264164;
      }

      .cls-82 {
        fill: #122a49;
      }
    </style>
  </defs>
  <g>
    <path id="Beak" class="cls-50" d="M241.36,95.21s44.6-.76,68.41,23.81c-12.02-2.78-27.87-5.22-46.49-4.91-15.73.26-29.3,2.43-40.06,4.91,1.89-4.16,3.78-8.32,5.67-12.47l12.47-11.34Z"/>
    <path class="cls-30" d="M243.25,132.63l-20.03-13.61c8.07-1.9,17.18-3.49,27.21-4.35,23.76-2.02,44.14.81,59.34,4.35,0,0-12.47-.76-66.52,13.61Z"/>
    <path class="cls-49" d="M244.01,95.21c-4.64-3.46-10.42-7.19-17.39-10.58-4.6-2.24-8.97-3.96-12.94-5.29-6.78.25-13.56.5-20.35.76l-13.82,4.16-16.12,8.69-7.68,6.8-9.21,12.85s44.53-14.36,54.51-18.52l15.36,2.65,11.9-.76,15.74-.76Z"/>
    <polygon class="cls-14" points="125.71 169.29 150.65 112.97 146.5 112.6 125.71 169.29"/>
    <polygon class="cls-11" points="150.65 112.97 183.91 109.95 199.79 122.42 212.26 125.82 223.22 119.02 228.89 106.55 241.36 95.21 216.37 96.72 201.01 94.08 146.5 112.6 150.65 112.97"/>
    <polygon class="cls-19" points="207.35 148.12 212.26 125.82 199.79 122.42 183.91 109.95 150.65 112.97 187.31 152.66 197.52 155.68 207.35 148.12"/>
    <polygon class="cls-53" points="236.45 133.76 223.22 119.02 241.29 131.33 236.45 133.76"/>
    <path class="cls-8" d="M230.02,176.47l-32.5-20.79,9.83-7.56,29.1-14.36,4.84-2.43s1.96,1.29,1.96,1.3c-.52,2.08-12.71,41.75-13.23,43.84Z"/>
    <polygon class="cls-26" points="251.19 130.36 230.02 176.47 243.25 132.63 251.19 130.36"/>
    <polygon class="cls-80" points="239.28 155.97 259.69 199.52 230.02 176.47 239.28 155.97"/>
    <polygon class="cls-41" points="271.98 219.18 241.06 188.85 235.39 180.56 259.69 199.52 271.98 219.18"/>
    <polygon class="cls-6" points="271.98 219.18 254.78 231.08 263.85 290.23 271.98 219.18"/>
    <polygon class="cls-33" points="260.64 226.93 252.89 227.82 254.78 231.08 260.64 226.93"/>
    <polygon class="cls-81" points="241.36 189.13 238.91 189.13 254.4 227.68 260.64 226.93 271.98 219.18 241.36 189.13"/>
    <path class="cls-17" d="M199.62,157l20.03,37.61,19.09-5.29c-.01-.13,2.97-.06,2.95-.19-.11-1.13-5.67-7.44-6.31-8.57-3.05-2.27-2.69-2.24-5.46-4.46l-30.31-19.09Z"/>
    <polygon class="cls-55" points="214.34 196.31 219.94 194.59 199.79 156.82 197.52 155.68 187.31 152.66 150.65 112.97 183.16 176.85 214.34 196.31"/>
    <polygon class="cls-51" points="253.46 228.06 216.04 195.56 238.91 189.13 254.4 227.68 253.46 228.06"/>
    <path class="cls-58" d="M214.46,196.43l24.06,23.31s.02.01.03.02l14.92,8.31-37.36-32.46s-.08-.04-.12-.02l-1.48.66c-.07.03-.09.13-.03.18Z"/>
    <polygon class="cls-63" points="221.52 239.59 214.34 196.31 238.53 219.75 221.71 241.67 221.52 239.59"/>
    <polygon class="cls-72" points="254.31 228.11 222.84 280.97 216.89 287.92 221.71 241.67 238.53 219.75 254.31 228.11"/>
    <polygon class="cls-74" points="262.91 276.82 244.2 314.23 264.04 284.19 262.91 276.82"/>
    <polygon class="cls-61" points="219.44 376.78 231.54 360.34 263.85 290.23 264.04 284.19 244.2 314.23 228.32 345.41 219.44 376.78"/>
    <polygon class="cls-65" points="254.78 231.08 234.75 325.43 234.75 332.85 246.65 309.46 262.91 276.82 254.78 231.08"/>
    <polygon class="cls-64" points="199.46 400.17 205.13 371.12 210.84 360.86 234.75 325.29 234.75 332.85 228.32 345.41 219.44 376.78 199.46 400.17"/>
    <polygon class="cls-47" points="183.87 411.23 199.46 400.17 205.13 371.12 210.8 361.34 201.16 372.11 174.23 393.08 173.52 402.44 183.87 411.23"/>
    <polygon class="cls-75" points="233.66 323.12 197.05 348.58 169.41 394.5 174.23 393.08 201.16 372.11 210.8 361.34 235.31 324.49 235.6 321.93 233.66 323.12"/>
    <polygon class="cls-27" points="196.2 347.73 242.4 290.33 235.6 321.93 197.05 348.58 196.2 347.73"/>
    <polygon class="cls-48" points="253.65 229.19 222.84 280.97 196.2 347.73 242.4 290.33 254.78 231.08 253.65 229.19"/>
    <polygon class="cls-43" points="217.03 287.21 98.54 439.57 196.2 347.73 222.84 280.97 217.03 287.21"/>
    <polygon class="cls-38" points="174.23 393.08 149.9 420.63 156.32 383.21 196.2 347.73 197.19 348.37 169.41 394.5 174.23 393.08"/>
    <polygon class="cls-12" points="138.18 425.54 127.98 410.8 156.32 383.21 149.9 420.63 138.18 425.54"/>
    <polygon class="cls-7" points="214.34 196.31 177.87 258.86 142.34 272.85 154.81 234.3 214.34 196.31"/>
    <polygon class="cls-44" points="183.16 176.85 125.71 169.29 150.65 112.97 183.16 176.85"/>
    <polygon class="cls-79" points="214.34 196.31 149.9 177.6 160.1 173.82 183.16 176.85 214.34 196.31"/>
    <polygon class="cls-40" points="125.71 169.29 93.58 202.93 149.9 177.6 160.1 173.82 125.71 169.29"/>
    <path class="cls-22" d="M214.34,196.31c-13.55.74-27.13,1.79-40.68,2.53-26.7,1.46-53.38,2.62-80.08,4.09,18.77-8.44,37.54-16.88,56.31-25.32l64.44,18.71Z"/>
    <polygon class="cls-9" points="84.13 241.86 93.58 202.93 113.99 201.79 87.16 242.99 84.13 241.86"/>
    <polygon class="cls-78" points="172.57 198.77 88.67 240.72 113.99 201.79 172.57 198.77"/>
    <polygon class="cls-82" points="154.81 234.3 161.24 204.06 172.57 198.77 214.34 196.31 154.81 234.3"/>
    <polygon class="cls-62" points="221.52 239.59 214.34 196.31 177.87 258.86 221.52 239.59"/>
    <polygon class="cls-76" points="149.52 298.17 177.87 258.86 221.52 239.59 221.71 241.67 149.52 298.17"/>
    <polygon class="cls-21" points="154.81 234.3 102.65 256.6 151.03 209.35 161.24 204.06 154.81 234.3"/>
    <polygon class="cls-68" points="80.35 268.69 87.91 240.3 151.03 209.35 102.65 256.6 80.35 268.69"/>
    <polygon class="cls-56" points="67.5 316.31 57.44 400.6 109.08 291.37 67.5 316.31"/>
    <polygon class="cls-53" points="62.59 321.23 84.13 241.86 87.16 242.99 80.35 268.69 67.5 316.31 62.59 321.23"/>
    <polygon class="cls-16" points="154.81 234.3 67.5 316.31 80.35 268.69 102.37 256.17 154.81 234.3"/>
    <polygon class="cls-2" points="109.08 291.37 67.5 316.31 154.81 234.3 142.34 272.85 109.08 291.37"/>
    <polygon class="cls-46" points="116.64 340.88 142.34 272.85 177.87 258.86 149.52 298.17 116.64 340.88"/>
    <polygon class="cls-45" points="83 371.87 60.42 394.36 109.08 291.37 142.34 272.85 83 371.87"/>
    <polygon class="cls-32" points="116.64 340.88 83 371.87 142.34 272.85 116.64 340.88"/>
    <polygon class="cls-25" points="221.71 241.67 158.97 342.39 112.48 388.12 144.61 305.35 149.52 298.17 221.71 241.67"/>
    <polygon class="cls-5" points="217.17 286.45 221.71 241.67 158.97 342.39 217.17 286.45"/>
    <polygon class="cls-21" points="120.8 416.33 50.87 489.41 158.97 342.39 217.17 286.45 216.18 289.48 120.8 416.33"/>
    <polygon class="cls-52" points="46.72 496.97 85.65 414.96 112.48 388.12 158.97 342.39 50.87 489.41 46.72 496.97"/>
    <polygon class="cls-3" points="39.16 504.53 60.7 440.28 85.65 414.96 46.72 496.97 39.16 504.53"/>
    <polygon class="cls-42" points="149.93 297.33 144.93 303.33 127.41 329.87 60.7 440.28 112.48 388.88 149.93 297.33"/>
    <polygon class="cls-68" points="45.58 466.36 64.48 389.63 80.73 374.14 60.7 440.28 45.58 466.36"/>
    <polyline class="cls-28" points="60.67 440.42 78.81 375.55 114.71 342.29 142.68 306.76"/>
    <polygon class="cls-34" points="112.86 487.15 131 414.58 127.98 410.8 107.19 430.83 87.16 515.49 93.58 510.96 112.86 487.15"/>
    <polygon class="cls-39" points="54.28 537.79 87.16 515.49 107.19 430.83 89.8 448.6 54.28 537.79"/>
    <polygon class="cls-13" points="50.5 515.49 54.28 537.79 89.8 448.6 61.46 479.21 50.5 515.49"/>
    <polygon class="cls-57" points="199.46 400.17 212.26 417.98 206.97 423.65 190.57 406.36 199.46 400.17"/>
    <path class="cls-71" d="M183.87,411.23s41.62,35.86,43.13,43.8c0,0-5.67-.76-8.31,2.27,0,0-5.67-2.27-11.72-3.4,0,0-12.47,2.27-14.36,12.47,0,0,8.31-7.94,11.72-7.18,0,0-4.91,6.8,12.09,6.43,0,0,10.2-2.65,24.57,3.02,0,0,4.82-1.23.28-9.92,0,0-5.57-2.31-8.22-4.96l-3.78-8.93-22.3-21.17-16.87-17.81-6.24,5.39Z"/>
    <polygon class="cls-60" points="212.26 417.98 206.97 423.65 229.27 444.82 235.31 442.93 212.26 417.98"/>
    <polygon class="cls-69" points="244.76 451.62 235.31 442.93 229.27 444.82 233.05 454.26 240.61 458.8 244.76 451.62"/>
    <path class="cls-71" d="M285.58,490.93s-7.18-12.85-10.58-11.72l-3.78,1.89-.38-12.09s15.87,4.16,14.74,21.92Z"/>
    <path class="cls-66" d="M244.76,451.62s16.25,9.83,34.77,2.65c0,0,7.18,4.91,3.4,13.98l-11.34-4.16h-15.5l-11.34-12.47Z"/>
    <path class="cls-4" d="M296.92,479.59s-9.07-20.79-13.98-11.34c0,0,4.16-7.56-3.4-13.98,0,0,24.57,7.94,17.39,25.32Z"/>
    <path class="cls-37" d="M270.84,469.01l-8.31-1.13-6.43-3.78-11.34-12.47-4.16,7.18s5.67,6.8.38,9.83l10.96,2.65,9.07,6.05s9.45,5.67,10.2,3.78c.76-1.89-.38-12.09-.38-12.09Z"/>
    <path class="cls-73" d="M261.02,477.32l1.51-9.45,8.31,1.13.38,12.09s-3.78,1.13-10.2-3.78Z"/>
    <polygon class="cls-77" points="256.1 464.09 251.94 471.27 261.02 477.32 262.53 467.87 256.1 464.09"/>
    <polygon class="cls-1" points="152.92 417.23 166.53 447.84 159.72 449.73 143.85 422.89 149.9 420.63 152.92 417.23"/>
    <path class="cls-67" d="M138.18,425.54l25.7,43.09s13.61,17.76-11.34,10.96l-3.78,8.69s0,2.27,2.27,3.4,8.31-3.31,25.32,1.61c0,0,6.43-4.63,1.89-9.92l-7.94-6.8,1.13-2.65-11.72-24.19-15.87-26.83-5.67,2.65Z"/>
    <polygon class="cls-35" points="166.53 447.84 178.24 467.87 168.37 467.66 159.72 449.73 166.53 447.84"/>
    <path class="cls-10" d="M216.42,481.86l.76,10.2s5.67-4.91,20.03,11.72c0,0,1.13-19.28-20.79-21.92Z"/>
    <path class="cls-70" d="M178.24,467.87s10.58,15.12,19.28,15.12l-3.78,8.31-11.34-10.2-4.16,2.27-7.94-6.8,1.13-2.65-3.07-6.26,9.87.21Z"/>
    <path class="cls-31" d="M216.42,481.86l-7.94.38-1.13,9.83s9.83,5.29,9.83,0l-.76-10.2Z"/>
    <path class="cls-54" d="M193.74,491.3l13.61.76,1.13-9.83s-8.69,2.27-10.96.76c-2.27-1.51-3.78,8.31-3.78,8.31Z"/>
    <path class="cls-20" d="M133.65,495.08s3.02-17.76,18.9-15.5l-3.78,8.69s-6.05-3.78-15.12,6.8Z"/>
    <path class="cls-59" d="M175.98,493.19s7.18,3.4,17.76,11.34c0,0,5.67,10.2,11.34,7.94,0,0-.38-11.34,3.4-10.58l-14.74-10.58-11.34-10.2c-1.64-1.15-4.01-2.53-7.09-3.5-1.86-.59-3.57-.89-5.01-1.04,6.31,5.5,9.34,11.47,5.67,16.63Z"/>
    <path class="cls-29" d="M219.06,524.56s-11.34-13.98-13.98-12.09,0-11.34,3.4-10.58,14.36,12.47,10.58,22.68Z"/>
    <polygon class="cls-15" points="199.41 97.48 189.58 102.77 188.07 107.3 201.3 116 209.61 117.51 228.89 106.55 241.36 95.21 220.2 99.37 199.41 97.48"/>
    <polygon class="cls-18" points="265.55 100.88 237.96 98.99 228.89 106.55 223.22 119.02 268.57 102.39 265.55 100.88"/>
    <path class="cls-23" d="M207.72,103.24s-.09-.66,2.17.38,2.93,3.69,2.93,3.69c.12.33.91,2.62-.28,4.06-.55.67-1.32.9-2.36,1.23-1.4.43-2.62.49-3.4.47-.42-.08-1.88-.43-2.93-1.8-.79-1.02-.92-2.05-.94-2.27-.28-2.43,1.65-4.15,1.98-4.44,1.04-.89,2.16-1.2,2.83-1.32Z"/>
    <polygon class="cls-36" points="223.22 119.02 212.26 125.82 207.35 148.12 236.45 133.76 223.22 119.02"/>
  </g>
  <g>
    <path class="cls-24" d="M344.26,237.71c-2.22,2.24-10.56,8.48-10.56,34.91v79.79c0,4.74-2.04,11.72-5.75,11.72-2.41,0-10.38-8.98-16.87-8.98-8.15,0-14.64,6.73-15.57,6.73-1.3,0-1.85-1.5-1.85-4.49,0-3.24,4.08-13.71,11.31-18.45,4.45-2.74,8.71-3.74,8.71-16.95,0-5.49-4.26-11.97-8.53-11.97-6.3,0-9.08,6.23-12.6,6.23-2.04,0-2.97-1.25-2.97-2.74,0-1.99,6.49-10.47,15.38-15.46,3.52-1.99,10.38-5.73,10.38-10.47v-19.95c0-7.98-.56-14.21,2.78-17.95-2.78,0-9.64-4.99-11.86-4.99-6.12,0-14.46,7.98-16.12,7.98s-2.59-1.25-2.59-3.74c-.19-8.23,5-19.2,12.97-19.2,8.53,0,15.94,4.49,25.21,4.49,4.08,0,7.23-4.99,16.68-4.99,4.08,0,5.75,1.25,5.75,2.74,0,1.25.19,1.5-3.89,5.74ZM409.87,330.71v41.89c0,4.24-4.45,4.49-8.71,7.48l-38.18,26.18c-.56-.75-13.16-18.45-27.43-18.45-9.08,0-24.28,2.24-24.28,23.19,0,4.74,2.22,7.98,2.22,13.21,0,5.73-4.63,10.72-10.01,10.72-3.71,0-9.27-2.49-9.27-13.21,0-21.19,13.9-43.88,43.56-43.88,9.82,0,19.27,1.25,33.18,13.96l15.57-10.47v-60.34c0-7.23-2.97-7.48-6.12-11.22-1.3-1.5-3.15-2.74-3.15-4.99,0-.5.19-1,.37-1.5.93-2.49,6.12-11.47,8.9-16.71,1.11-1.99,1.48-4.24,1.48-5.98,0-1-.19-1.75-.37-2.24l-11.68-40.39c-.56-1.75,1.11-3.24,3.15-4.99,2.04-1.75,5.37-2.49,10.01-2.49,1.85,0,3.52,1.99,4.82,5.73,1.3,3.74,4.26,10.72,8.9,20.69,4.63,9.97,7.04,13.96,7.04,15.21,0,2.49-11.12,19.95-13.34,24.18-.74,1.5-1.11,2.99-1.11,4.24,0,2.74,1.11,4.74,2.04,5.73l9.27,9.47c2.96,2.99,4.45,4.24,4.45,5.73,0,1-1.3,4.99-1.3,9.23ZM361.87,258.91c-.56,2.24-1.85,12.72-3.89,31.91-4.63,44.13-9.08,71.56-13.34,71.56-1.67,0-2.41-1.25-2.41-3.49,0-7.98.37-15.46.37-25.68,0-2.24-1.67-28.67-1.67-38.9,0-20.94-.74-32.41,10.19-45.63,4.63-5.74,8.9-8.73,12.97-8.73.93,0,2.23,0,2.23,2,0,3.74-3.89,14.96-4.45,16.95Z"/>
    <path class="cls-24" d="M486.96,301.79l-7.41,15.46c-.56,1.25-1.67,2-2.78,2-1.3,0-2.22-1-2.96-2.24l-7.6-14.46c-.56-1-1.48-1.75-2.41-1.75-1.67,0-2.96,1.75-2.96,3.99v58.09c0,4.74,1.85,10.47,5.75,10.47.19,0,1.11-.25,2.04-1l4.45-3.24c.74-.5,1.3-1,1.85-1,.93,0,2.04,1.99,2.04,2.99,0,.75.19,1.5-1.3,2.74l-20.02,17.7c-1.11,1-1.67,2-3.15,2-1.67,0-4.63-3.24-8.9-6.23-4.08-2.99-8.53-5.98-9.82-6.48-.93-.5-1.85-1.75-1.85-2.99,0-4.74,7.6.75,7.6-12.47v-53.86c0-1-1.3-8.98-3.52-10.72-.93-.75-2.41-1.25-4.08-1.25h-1.85c-1.48,0-2.23-.5-2.78-2.24l15.38-21.44c.74-1.25,2.22-.75,3.15-.75s1.85.75,3.15,2.49l7.97,11.22c1.3,1.99,2.59,2.74,3.52,2.74,1.3,0,2.41-1,3.34-2.74l4.82-9.23c1.85-3.49,2.41-5.24,4.63-5.24,1.48,0,2.22,1,2.97,2.24l10.75,18.45c.74,1.25,1.3,1.99,1.3,3.24,0,1-.56,2-1.3,3.49Z"/>
    <path class="cls-24" d="M568.32,380.83l-16.12,10.97c-1.3.75-2.41,1.5-3.15,1.5s-1.3-.5-2.04-1.5l-10.94-19.45-20.57,21.19c-.56.5-1.3,1-2.04,1-.93,0-1.48-.25-2.04-1l-14.27-14.96c-3.71-3.99-5.19-4.74-5.19-5.98s.19-2.24.74-2.99l1.85-1.5c1.3-1,2.41-2.74,3.15-4.99.56-2.24.93-4.24.93-6.23v-15.96c0-7.98-1.48-8.98-1.48-12.47,0-2,.56-4.24,2.04-4.74l21.68-8.73c1.48-.5,3.89,1,3.89,3.74,0,1.99-.37,2.74-1.11,3.74-4.63,5.73-5,6.48-5,13.96v27.18c0,2.49,0,3.99.93,5.73l2.59,3.24c.56.75,1.48.25,1.85,0l5.93-4.49c2.22-1.75,2.22-4.24,2.22-7.23v-59.34c0-2.74-1.67-4.99-3.71-4.99l-25.58-14.71c-.93-.5-1.48-1.75-1.48-3.24,0-1.99,1.11-3.49,2.59-3.49.74,0,4.63,1,5.75,1.25l19.46,3.99c2.78.5,6.86.5,10.38.5,2.22,0,7.23-1,13.34-3.99,1.85-1,3.15-1.74,4.82-1.74,1.11,0,1.85,2.24,1.85,3.49s-.19,2.99-1.85,4.49c-3.52,3.24-3.89,6.98-3.89,16.46v69.31c0,3.99,2.41,7.23,5.38,7.23,4.82,0,4.45-4.49,7.78-4.49,1.85,0,3.52,2.24,3.52,4.74,0,1.74-.74,3.49-2.22,4.49Z"/>
    <path class="cls-24" d="M638,372.6c-6.67,3.99-18.35,13.46-22.05,17.7-2.04,2.24-3.15,3.49-3.52,3.49-.56,0-1.67-1-3.71-3.24-2.04-2.24-15.01-10.97-24.28-12.97-3.52-.75-5-1.25-5-2.24,0-.75.74-1.75,2.22-3.74,1.3-1.75,2.22-3.24,2.59-4.49.37-1.25.56-3.24.56-5.49v-57.35c0-5.24,1.67-6.48,4.08-8.48l7.6-6.48c2.78-2.49,5-.75,5.38,8.48l2.96,59.84c.19,2.99-.18,11.47,4.82,13.21l8.34,2.99c4.26,1.5,5-1.74,5-6.98l-.19-59.34c0-14.71-.37-18.95-2.41-21.44l-30.02-35.65c-1.67-1.99-3.89-3.24-3.71-6.98l.93-14.21c.56-8.23,1.85-9.72,10.38,1.75l31.51,42.64c.56.75,3.34,4.24,5.75,4.24.93,0,1.67-.5,2.22-.75l5.75-2.99c.74-.25,1.11,1,1.3,1.25s.74.5.74,1.5v86.77c0,2.49-2.22,5.98-7.23,8.98Z"/>
    <path class="cls-24" d="M707.69,374.35l-15.57,17.7c-.93,1-1.67,1.75-2.22,1.75-1.67.25-7.6-5.49-11.86-7.73-4.26-2.24-5.93-4.24-8.71-5.49-2.78-1.25-4.08-1.99-4.08-2.74,0-.5.37-1,1.11-1.75,1.3-1.25,4.82-3.24,4.82-15.96v-99.98c0-14.21-7.41-19.45-10.19-23.19-.74-1-1.3-1.99-1.3-3.24,0-2.24,1.48-4.24,3.15-4.24.37,0,1.11.25,1.85.5l12.79,3.99,15.38-8.48c.37-.25.93-.5,1.3-.5,1.67,0,3.15,1.99,3.15,4.24,0,1.25-.56,2.49-1.11,3.24-2.41,2.74-5.19,4.49-5.19,10.22v123.92c0,3.99,2.04,10.22,5.56,10.22,1.85,0,2.97-1,3.89-1.99l4.45-4.99c1.11-1.25,1.67-1.5,2.23-1.5.93,0,2.22,1.99,2.22,2.99,0,.75-.37,1.5-1.67,2.99Z"/>
    <path class="cls-24" d="M764.95,315.5l-13.53,25.68c-1.3,2.24-2.22,3.24-3.15,3.74-.37.25-.74.5-.93.5s-1.48-1.25-1.48-2.99c0-.5.18-1,.37-1.25.74-1,.37-2.24.93-2.99l3.34-5.49c.93-1.5,2.22-4.49,2.22-7.73,0-2.49-1.67-4.99-2.22-5.73l-8.34-11.22c-.74-1-1.3-1.5-1.67-1.5-.74,0-2.41.5-2.41,9.72v46.87c0,6.98,2.97,8.23,7.6,11.47,2.04,1.5,4.26,2.24,5.75,2.24,1.3,0,1.85-.5,2.59-1l7.41-6.73c1.3-1.25,2.04-1.5,2.59-1.5.37,0,1.85,1.5,1.85,3.24,0,.75-.37,1.25-1.3,1.99l-18.16,16.7c-2.78,2.49-4.45,3.49-5,3.49-.93,0-2.04-.5-3.15-1.25-6.86-5.24-15.2-9.72-20.39-10.72-1.48-.25-5-1.25-5-1.99,0-2.24,3.71-6.98,4.82-12.72.74-3.49.93-6.48.93-9.23l1.48-66.07c0-1.5.37-2.24,1.3-2.99l15.75-11.47c1.11-.75,3.15-2.99,5.19-2.99.74,0,1.48,1,2.41,1.99l18.35,23.44c1.3,1.99,4.26,5.49,4.26,8.98,0,2.74-1.11,5.24-2.41,7.48Z"/>
    <path class="cls-24" d="M814.81,377.34c-12.42,10.22-27.8,18.95-27.8,35.65,0,8.48,5,15.21,11.31,15.21,10.94,0,13.72-20.94,24.65-20.94,2.78,0,6.67,3.74,6.67,8.98,0,12.47-12.6,19.2-25.76,19.2s-23.91-10.22-23.91-22.69c0-14.46,5.75-14.96,5.93-30.17.18-4.74.74-8.98.74-15.96v-47.87c0-4.74-3.71-17.7-7.6-17.7-1.11,0-1.85,2.74-2.96,2.74-1.67,0-4.26-2.49-4.26-4.24,0-2.49,1.67-3.24,2.23-4.49.93-2.24,7.41-8.48,15.94-18.45,1.67-1.99,3.34-1.75,3.89-1.75,2.22,0,14.09,12.22,14.09,31.67v52.36c0,4.49,2.59,7.98,5.93,7.98,4.82,0,16.31-19.45,16.31-43.38,0-14.96-3.15-15.96-5.19-19.95-1.48-2.74-2.04-4.74-4.08-4.74s-3.89,2.74-4.82,2.74-3.34-2.99-3.34-4.74c0-1,.93-1.99,1.48-2.74.56-.75,14.64-17.2,16.12-18.2.74-.5,1.48-1,2.04-1,4.45,0,11.86,19.2,11.86,30.42,0,21.69-4.26,51.36-29.47,72.06Z"/>
    <path class="cls-24" d="M976.04,256.41c-10.94,0-18.35-5.98-20.76-5.98-2.04,0-3.15,2.49-3.15,10.97l-.18,66.07c0,1.75-.19,5.98-1.48,5.98s-13.72,6.48-17.61,8.48c-3.52,1.75-4.82.25-3.15-8.98l12.79-73.3c1.3-7.23-5.19-15.21-26.13-15.21-16.68,0-24.84,9.72-30.95,17.2-.18,0-1.11-.5-1.11-2.74,0-7.98,14.27-34.91,37.25-34.91,21.13,0,43.18,11.47,56.34,11.47,14.09,0,18.35-4.49,22.8-4.49,2.04,0,2.97,1,2.97,2.99,0,7.73-9.64,22.44-27.62,22.44ZM947.87,395.79c-21.5,0-58.01-12.97-58.01-70.31,0-21.69,9.27-52.11,20.57-52.11.93,0,1.85,1,1.48,1.99-5.56,14.21-6.67,28.42-6.67,41.14,0,35.9,22.8,61.09,47.45,61.09,8.9,0,24.28-.5,42.63-19.7,3.15-3.24,5.93-4.49,5.93,0,0,4.99-16.12,37.9-53.38,37.9Z"/>
    <path class="cls-24" d="M1067.04,301.79l-7.41,15.46c-.56,1.25-1.67,2-2.78,2-1.3,0-2.22-1-2.97-2.24l-7.6-14.46c-.56-1-1.48-1.75-2.41-1.75-1.67,0-2.97,1.75-2.97,3.99v58.09c0,4.74,1.85,10.47,5.75,10.47.19,0,1.11-.25,2.04-1l4.45-3.24c.74-.5,1.3-1,1.85-1,.93,0,2.04,1.99,2.04,2.99,0,.75.19,1.5-1.3,2.74l-20.02,17.7c-1.11,1-1.67,2-3.15,2-1.67,0-4.63-3.24-8.9-6.23-4.08-2.99-8.53-5.98-9.82-6.48-.93-.5-1.85-1.75-1.85-2.99,0-4.74,7.6.75,7.6-12.47v-53.86c0-1-1.3-8.98-3.52-10.72-.93-.75-2.41-1.25-4.08-1.25h-1.85c-1.48,0-2.22-.5-2.78-2.24l15.38-21.44c.74-1.25,2.22-.75,3.15-.75s1.85.75,3.15,2.49l7.97,11.22c1.3,1.99,2.59,2.74,3.52,2.74,1.3,0,2.41-1,3.34-2.74l4.82-9.23c1.85-3.49,2.41-5.24,4.63-5.24,1.48,0,2.22,1,2.96,2.24l10.75,18.45c.74,1.25,1.3,1.99,1.3,3.24,0,1-.56,2-1.3,3.49Z"/>
    <path class="cls-24" d="M1125.79,315.5l-13.53,25.68c-1.3,2.24-2.22,3.24-3.15,3.74-.37.25-.74.5-.93.5s-1.48-1.25-1.48-2.99c0-.5.19-1,.37-1.25.74-1,.37-2.24.93-2.99l3.34-5.49c.93-1.5,2.23-4.49,2.23-7.73,0-2.49-1.67-4.99-2.23-5.73l-8.34-11.22c-.74-1-1.3-1.5-1.67-1.5-.74,0-2.41.5-2.41,9.72v46.87c0,6.98,2.96,8.23,7.6,11.47,2.04,1.5,4.26,2.24,5.75,2.24,1.3,0,1.85-.5,2.59-1l7.41-6.73c1.3-1.25,2.04-1.5,2.59-1.5.37,0,1.85,1.5,1.85,3.24,0,.75-.37,1.25-1.3,1.99l-18.16,16.7c-2.78,2.49-4.45,3.49-5,3.49-.93,0-2.04-.5-3.15-1.25-6.86-5.24-15.2-9.72-20.39-10.72-1.48-.25-5-1.25-5-1.99,0-2.24,3.71-6.98,4.82-12.72.74-3.49.93-6.48.93-9.23l1.48-66.07c0-1.5.37-2.24,1.3-2.99l15.75-11.47c1.11-.75,3.15-2.99,5.19-2.99.74,0,1.48,1,2.41,1.99l18.35,23.44c1.3,1.99,4.26,5.49,4.26,8.98,0,2.74-1.11,5.24-2.41,7.48Z"/>
    <path class="cls-24" d="M1199.36,370.11c-9.27,6.73-17.98,14.96-21.87,20.2-1.67,2.24-2.59,3.24-3.15,3.24-.93,0-2.41-.5-4.08-2.49-2.41-2.74-15.2-12.72-22.8-13.21-3.71-.5-5-1.25-5-2.24s.93-1.99,1.67-3.74c1.67-3.74,2.41-5.24,2.41-9.97l-1.11-56.1c0-2.24.19-4.99-2.96-10.22l-5.38-9.23c-3.89-6.73-4.08-9.23-4.08-11.97,0-17.95,13.53-32.41,20.2-32.41,1.85,0,2.59,2.99,1.85,3.24-2.22.5-7.41,6.73-7.41,15.96,0,12.22,17.79,24.43,17.79,40.39v55.6c0,1.25-.37,10.97,5.19,13.21l6.3,2.49c.56.25,1.3.25,1.85.25,3.34,0,5.75-3.74,5.75-8.23l-.74-53.86c-.19-8.98-2.96-11.72-7.23-16.7l-1.3-1.5c-.56-.75-.93-1.74-.93-2.99,0-1,.93-2,1.85-3.24l9.08-11.22c.74-1,1.67-1.5,2.96-1.5s2.41.75,2.97,1.5l6.49,9.23c1.3,1.75,6.86,8.48,7.6,22.69l1.3,51.61c.19,6.73-2.59,7.98-7.23,11.22Z"/>
    <path class="cls-24" d="M1241.61,391.8c-1.11.75-1.85,1-2.78,1s-2.04-.25-2.96-1l-11.68-7.73c-1.11-.75-1.67-1.99-1.67-3.24s.37-2.24,1.11-2.99l1.48-1.5c1.85-1.75,4.08-5.24,4.08-11.22v-58.34c0-4.24,0-7.48-4.08-12.22l-3.71-3.74c-.56-.5-.93-1.5-.93-2.99,0-1.25.56-2.24,1.85-3.24l10.38-8.23c1.11-.75,2.04-1,2.96-1,.74,0,2.04.75,2.59,1.25l13.34,10.22c1.67,1.25,2.59,2.74,2.59,3.99,0,1-.37,1.99-1.3,3.24l-.93,1.25c-1.85,2.49-2.41,6.48-2.41,11.47v55.1c0,14.71.56,17.7,4.63,14.96l1.48-1c.93-.5,1.67-.75,2.41-.75s3.15,4.99,1.48,5.98l-17.98,10.72ZM1239.94,259.9c-.37.5-.93.75-1.48.75-1.11,0-2.04-1.25-2.04-2.74,0-.5,0-.75.19-1.25l6.67-20.2c.74-2.49,1.85-4.24,4.45-3.24l6.86,2.74c1.67.75,1.48,3.49.74,4.24l-15.38,19.7Z"/>
    <path class="cls-24" d="M1337.06,369.61c-.19,1-1.67,1.99-4.45,3.24-3.71,1.75-11.31,7.73-17.42,15.96-2.41,3.24-4.26,4.99-5.38,4.99-.56,0-2.04-1-4.82-2.74-2.04-1.25-7.78-7.48-30.21-7.48-1.48,0-2.22-.25-2.22-1-.19-2.99,5.75-20.69,21.13-20.69,2.41,0,5.93-1.75,18.53,6.73.37.25.93.5,1.3.5,1.3,0,2.41-1.5,2.41-3.24v-14.46c0-.25.37-3.99-1.67-5.73l-7.6-6.48c-1.3-1-1.48-2.49-3.15-2.49-2.04,0-2.97,1.75-4.45,3.99l-2.41,3.74c-.74,1.25-2.04,2.24-2.96,2.24-.74,0-2.04-.25-3.34-1.25l-15.01-11.47c-.93-.75-3.34-1.25-3.34-8.23v-24.18c0-2.49.19-4.24.37-5.24.19-.75,1.67-1.99,4.45-3.24,5-2.24,12.05-8.73,17.42-15.96,2.41-3.24,4.26-4.99,5.38-4.99,1.67,0,12.05,9.97,26.5,9.97h8.71c5.75,0-6.49,22.94-18.9,22.94-3.34,0-6.49,1.75-18.72-6.48-.37-.25-.93-.5-1.3-.5-1.3,0-2.41,1.5-2.41,3.24v14.46c0,.25-.37,4.24,1.67,5.73l7.04,5.49c2.22,1.75,5.19-.75,6.49-3.74l1.85-4.24c.74-1.75,2.78-2.74,3.71-2.74.56,0,3.15,3.24,4.82,4.49l14.83,11.47c.93.75,3.52,1.99,3.52,8.23v24.18c0,2.49-.19,4.24-.37,4.99Z"/>
    <path class="cls-24" d="M1410.45,372.85c-7.6,5.73-10.38,7.98-19.83,19.95-.56.75-1.3,1-1.85,1-.93,0-2.22-1.25-4.08-3.74-1.85-2.49-4.82-5.49-8.9-8.73-4.08-3.24-8.53-6.48-16.68-6.48h-2.96c-.93,0-1.85-.25-2.78-.5-.93-.25-1.48-1.5-1.48-3.24,0-1.25.37-1.75,1.11-1.75.93,0,2.04-1,3.34-2.99,1.3-1.99,1.85-5.98,1.85-12.22l-.56-53.85c0-2.99.19-10.72,5.19-11.47l15.94-10.72c2.22-1.5,2.78-2.74,3.71-2.74.74,0,1.48.25,2.04.75,2.96,2.24,13.16,11.22,28.36,14.46,1.85.5,3.52,2.74,3.52,6.98v68.07c0,1.99-2.04,4.24-5.93,7.23ZM1390.8,296.31l-5.75-4.74c-.74-.5-1.48-.75-2.41-.75-2.59,0-4.63,2.74-4.63,6.23l-.74,65.57c0,2.24.93,4.24,2.22,5.24l5.75,4.74c.74.5,1.48.75,2.41.75,2.59,0,4.63-2.74,4.63-6.23l.74-65.57c0-2.24-.93-4.24-2.23-5.24Z"/>
    <path class="cls-24" d="M1516.09,376.09l-18.35,14.96c-.93.75-2.04,1.25-3.15,1.25-4.26,0-11.86-11.72-11.86-31.67v-58.09c0-2.99-.74-7.23-3.71-7.23-.56,0-1.48.25-2.96,1l-9.27,4.49c-1.48.75-1.85,3.74-1.85,6.98v57.6c0,3.74.56,8.48,3.52,11.22l1.3,1.25c1.11,1.25,1.67,2.24,1.67,3.24,0,1.5-.56,2.49-1.48,2.99l-12.79,7.98c-1.11.75-2.04,1-2.97,1s-2.04-.25-3.15-1l-12.23-7.73c-1.3-.75-1.85-2-1.85-3.24s.37-2.24,1.11-2.99l1.48-1.5c1.48-1.5,4.45-5.24,4.45-11.22l-.56-46.87c-.19-10.22-1.11-15.46-3.52-19.7-1.3-2.24-2.59-2.99-4.08-2.99-1.11,0-2.41.75-3.52,1.75-.93.75-1.67,1.25-2.04,1.25-.56,0-.93-.5-1.3-1-.56-.75-.74-1.25-.74-1.75,0-.75.19-1.75,1.48-2.74l18.16-15.71c1.3-1,2.04-2,2.78-2,2.04,0,2.78,1.25,5.19,3.99l10.75,12.47,15.75-14.21c2.04-1.75,3.34-2.49,4.08-2.49,3.15,0,10.38,9.23,16.87,9.23,4.26,0,6.3,1.25,6.3,3.49,0,2.99-5.56,11.97-5.56,18.95v51.36c0,12.47,2.41,15.46,5,15.46s4.82-3.49,5.75-3.49c.74,0,2.22,1.99,2.22,3.74,0,.75-.37,1.5-.93,1.99Z"/>
    <path class="cls-24" d="M1576.88,315.5l-13.53,25.68c-1.3,2.24-2.22,3.24-3.15,3.74-.37.25-.74.5-.93.5s-1.48-1.25-1.48-2.99c0-.5.19-1,.37-1.25.74-1,.37-2.24.93-2.99l3.34-5.49c.93-1.5,2.23-4.49,2.23-7.73,0-2.49-1.67-4.99-2.23-5.73l-8.34-11.22c-.74-1-1.3-1.5-1.67-1.5-.74,0-2.41.5-2.41,9.72v46.87c0,6.98,2.96,8.23,7.6,11.47,2.04,1.5,4.26,2.24,5.75,2.24,1.3,0,1.85-.5,2.59-1l7.41-6.73c1.3-1.25,2.04-1.5,2.59-1.5.37,0,1.85,1.5,1.85,3.24,0,.75-.37,1.25-1.3,1.99l-18.16,16.7c-2.78,2.49-4.45,3.49-5,3.49-.93,0-2.04-.5-3.15-1.25-6.86-5.24-15.2-9.72-20.39-10.72-1.48-.25-5-1.25-5-1.99,0-2.24,3.71-6.98,4.82-12.72.74-3.49.93-6.48.93-9.23l1.48-66.07c0-1.5.37-2.24,1.3-2.99l15.75-11.47c1.11-.75,3.15-2.99,5.19-2.99.74,0,1.48,1,2.41,1.99l18.35,23.44c1.3,1.99,4.26,5.49,4.26,8.98,0,2.74-1.11,5.24-2.41,7.48Z"/>
  </g>
</svg>